<?xml version="1.0" encoding="utf-8"?>
<!-- Generator: Adobe Illustrator 21.0.2, SVG Export Plug-In . SVG Version: 6.00 Build 0)  -->
<svg xmlns="http://www.w3.org/2000/svg" xmlns:xlink="http://www.w3.org/1999/xlink" version="1.1" id="Layer_1" x="0px" y="0px" viewBox="0 0 40 40" style="enable-background:new 0 0 40 40;" xml:space="preserve" width="32px" height="32px">
<g>
	<path style="fill:#F78F8F;" d="M20,1C9.5,1,1,9.5,1,20s8.5,19,19,19s19-8.5,19-19S30.5,1,20,1z M6,20c0-7.7,6.3-14,14-14   c3,0,5.7,0.9,8,2.5L8.5,28C6.9,25.7,6,23,6,20z M20,34c-3,0-5.7-0.9-8-2.5L31.5,12c1.6,2.3,2.5,5,2.5,8C34,27.7,27.7,34,20,34z"/>
	<path style="fill:#C74343;" d="M20,39.5C9.2,39.5,0.5,30.8,0.5,20C0.5,9.2,9.2,0.5,20,0.5c10.8,0,19.5,8.7,19.5,19.5   C39.5,30.8,30.8,39.5,20,39.5z M20,1.5C9.8,1.5,1.5,9.8,1.5,20S9.8,38.5,20,38.5S38.5,30.2,38.5,20S30.2,1.5,20,1.5z M20,34.5   c-3,0-5.8-0.9-8.3-2.6l-0.5-0.3l20.3-20.3l0.3,0.5c1.7,2.4,2.6,5.3,2.6,8.3C34.5,28,28,34.5,20,34.5z M12.8,31.4   c2.2,1.4,4.6,2.1,7.2,2.1c7.4,0,13.5-6.1,13.5-13.5c0-2.6-0.7-5-2.1-7.2L12.8,31.4z M8.4,28.7l-0.3-0.5C6.4,25.8,5.5,23,5.5,20   C5.5,12,12,5.5,20,5.5c3,0,5.8,0.9,8.3,2.6l0.5,0.3L8.4,28.7z M20,6.5C12.6,6.5,6.5,12.6,6.5,20c0,2.6,0.7,5,2.1,7.2L27.2,8.6   C25,7.2,22.6,6.5,20,6.5z"/>
</g>
</svg>
